<svg xmlns="http://www.w3.org/2000/svg" width="134.074" height="128.107" viewBox="0 0 134.074 128.107"><g transform="translate(1.5 1.5)"><path d="M285.69,488.6a65.5,65.5,0,0,0,65.537-65.537" transform="translate(-220.153 -363.49)" fill="none" stroke="#d1a272" stroke-miterlimit="10" stroke-width="3"/><path d="M117.19,423.06A65.5,65.5,0,0,0,182.727,488.6" transform="translate(-117.19 -363.49)" fill="none" stroke="#d1a272" stroke-miterlimit="10" stroke-width="3"/><path d="M147.827,423.06a53.621,53.621,0,0,0,107.242,0" transform="translate(-135.911 -363.49)" fill="none" stroke="#d1a272" stroke-miterlimit="10" stroke-width="3"/><path d="M178.463,423.06a41.705,41.705,0,1,0,83.41,0" transform="translate(-154.631 -363.487)" fill="none" stroke="#d1a272" stroke-miterlimit="10" stroke-width="3"/><path d="M209.1,423.06a29.79,29.79,0,0,0,59.579,0" transform="translate(-173.352 -363.486)" fill="none" stroke="#d1a272" stroke-miterlimit="10" stroke-width="3"/><path d="M239.736,423.06a17.874,17.874,0,0,0,35.747,0" transform="translate(-192.073 -363.486)" fill="none" stroke="#d1a272" stroke-miterlimit="10" stroke-width="3"/><path d="M270.372,423.06a5.958,5.958,0,0,0,11.916,0" transform="translate(-210.793 -363.485)" fill="none" stroke="#d1a272" stroke-miterlimit="10" stroke-width="3"/><path d="M147.827,329.457a59.579,59.579,0,1,1,119.158,0" transform="translate(-135.911 -269.878)" fill="none" stroke="#d1a272" stroke-miterlimit="10" stroke-width="3"/><path d="M178.463,348.177a47.663,47.663,0,1,1,95.326,0" transform="translate(-154.631 -288.598)" fill="none" stroke="#d1a272" stroke-miterlimit="10" stroke-width="3"/><path d="M209.1,366.9a35.747,35.747,0,1,1,71.495,0" transform="translate(-173.352 -307.321)" fill="none" stroke="#d1a272" stroke-miterlimit="10" stroke-width="3"/><path d="M239.736,385.619a23.831,23.831,0,1,1,47.663,0" transform="translate(-192.073 -326.043)" fill="none" stroke="#d1a272" stroke-miterlimit="10" stroke-width="3"/><path d="M270.372,404.339a11.916,11.916,0,1,1,23.832,0" transform="translate(-210.793 -344.764)" fill="none" stroke="#d1a272" stroke-miterlimit="10" stroke-width="3"/></g></svg>