<svg xmlns="http://www.w3.org/2000/svg" width="128.989" height="128.412" viewBox="0 0 128.989 128.412"><g transform="translate(1.507 1.85)"><path d="M-1549.237,4132.678s25.918-37.355-9.182-77.058c-.031.022-34.774,33.1-9.609,77.058C-1567.971,4132.848-1549.237,4132.678-1549.237,4132.678Z" transform="translate(1621.528 -4007.986)" fill="none" stroke="#d1a272" stroke-linecap="square" stroke-width="3"/><path d="M-1521.675,4180.68s51.951-60.893-18.07-125.061c-.062.036-68.783,53.9-18.582,124.942C-1558.287,4180.606-1521.675,4180.68-1521.675,4180.68Z" transform="translate(1602.935 -4055.619)" fill="none" stroke="#d1a272" stroke-linecap="square" stroke-width="3"/><path d="M-1526.394,4055.964l25.093-10.825s25.281,60.344-39.9,88.278" transform="translate(1622.45 -4008.31)" fill="none" stroke="#d1a272" stroke-width="3"/><path d="M-1536.411,4035.456l19.4-10.16s6.128,8.3,6.311,24.2" transform="translate(1622.788 -4008.401)" fill="none" stroke="#d1a272" stroke-width="3"/><path d="M-1511.406,4055.943l-24.986-10.806s-25.179,60.253,39.728,88.133" transform="translate(1541.198 -4008.309)" fill="none" stroke="#d1a272" stroke-width="3"/><path d="M-1510.7,4035.456l-19.4-10.16s-6.128,8.3-6.311,24.2" transform="translate(1550.299 -4008.401)" fill="none" stroke="#d1a272" stroke-width="3"/></g></svg>