<svg xmlns="http://www.w3.org/2000/svg" width="60.647" height="79.105" viewBox="0 0 60.647 79.105"><g transform="translate(-9 -2)"><path d="M61.737,27.841V25.2l-7.91-7.91V14.657L41.169,2H9V65.284h7.91v7.91h7.91V81.1H69.647V35.751Zm3.428,7.119H61.737V31.533Zm-7.91-10.547H53.826V20.985ZM41.96,6.483l7.383,7.383H41.96ZM11.637,4.637H39.324V16.5H51.189V62.647H11.637Zm7.91,60.647H53.826V27.05H59.1V70.558H19.547ZM67.01,78.468H27.458V73.194H61.737V37.6H67.01Z" transform="translate(0 0)" fill="#d1a272"/><rect width="22" height="2" transform="translate(14 10.105)" fill="#d1a272"/><rect width="33.173" height="2.552" transform="translate(14.104 17.839)" fill="#d1a272"/><rect width="33.173" height="2.552" transform="translate(14.104 25.758)" fill="#d1a272"/><rect width="33.173" height="2.552" transform="translate(14.104 33.677)" fill="#d1a272"/><rect width="33.173" height="2.552" transform="translate(14.104 41.596)" fill="#d1a272"/><rect width="33.173" height="2.552" transform="translate(14.104 49.516)" fill="#d1a272"/></g></svg>