<svg xmlns="http://www.w3.org/2000/svg" width="72.573" height="82.592" viewBox="0 0 72.573 82.592"><g transform="translate(224.758 -28.75)"><g transform="translate(-224.508 29)"><g transform="translate(0 0)"><path d="M33.289,0A14.6,14.6,0,0,0,21.654,6.044c-3.038,3.878-4.783,8.339-5.559,16.742A10.868,10.868,0,0,0,20.652,31.9a30.563,30.563,0,0,0,5.559,9.146c.388.452.808.873,1.228,1.293l-1.487,3.167c-3.62,1.034-11.377,3.006-16.483,4.266-2.747.646-4.589,1.648-5.624,4.169C2.165,63.314.452,72.17,0,81.22a.943.943,0,0,0,.9.873H71.136a.983.983,0,0,0,.937-.937c-.452-7.821-.226-15.675-1.1-22.947-.97-3.846-2.812-6.076-4.913-7.143-7.4-1.584-13.736-4.266-20.2-5.559l-1.293-3.07a16.143,16.143,0,0,0,1.26-1.325,31.32,31.32,0,0,0,5.559-9.243,1.2,1.2,0,0,0,.582-.065c2.715-1.487,4.137-5.042,4.1-7.951-.162-7.692-1.39-12.669-3.329-15.8a8.633,8.633,0,0,0-7.175-4.331C42.177.388,37.879,0,33.289,0Zm0,1.842c3.814.129,8.791.259,11.15,3.264a.888.888,0,0,0,.711.388,6.538,6.538,0,0,1,6.044,3.523c1.681,2.683,2.876,7.369,3.038,14.867a8.762,8.762,0,0,1-1.907,5.236,14.051,14.051,0,0,0-1.26-9.6,50.1,50.1,0,0,0-5.171-8.177.954.954,0,0,0-.808-.356.918.918,0,0,0-.614.291c-4.3,4.751-11.118,5.882-16.645,7.4-2.78.743-5.236,1.584-6.884,3.264-1.39,1.39-1.939,3.426-1.519,6.044a12.289,12.289,0,0,1-1.487-5.074c.485-6.949,2.392-12.249,5.139-15.772A12.72,12.72,0,0,1,33.289,1.842Zm11.7,11.409A41.918,41.918,0,0,1,49.417,20.3c1.325,2.876,1.972,5.818,1.067,8.759a30.089,30.089,0,0,1-6.011,10.827c-2.618,2.941-5.591,4.783-8.4,4.751-2.844,0-5.915-1.875-8.532-4.816a29.408,29.408,0,0,1-6.011-10.827c-.9-3.006-.452-4.557.743-5.785,1.164-1.2,3.361-2.036,6.044-2.747,5.074-1.39,11.861-2.586,16.677-7.207Zm-16.1,30.316a12.079,12.079,0,0,0,7.175,2.909,11.479,11.479,0,0,0,7.046-2.78l1.648,3.943c-1.648,4.686-5.268,6.884-8.823,6.884-3.652,0-7.337-2.327-8.791-7.272ZM47.963,47.93a18.32,18.32,0,0,1,5.688,12.475,3.685,3.685,0,1,0,1.81,0,23.406,23.406,0,0,0-3.846-11.344c4.557,1.454,9.567,2.262,13.671,3.652,1.551.808,3.07,2.489,3.911,5.947.873,6.884.873,16.806,1,21.59H1.907c.388-8.08,2.2-18.164,3.62-25.63.873-2.1,2.456-2.553,4.4-3.07,3.038-.743,5.818-1.228,8.662-1.907a22.791,22.791,0,0,0-4.1,10.73,5.811,5.811,0,0,0-3.717,2.456,10.459,10.459,0,0,0-1.745,5.656c-.032,1.26-.032,2.586-.032,3.975a4.45,4.45,0,0,0,1.454,3.523,6.017,6.017,0,0,0,1.26.679.96.96,0,0,0,1.293-.873c-.032-.517-.356-.646-.711-.873a1.905,1.905,0,0,1-.711-.388,2.343,2.343,0,0,1-.776-2.068c0-1.325.032-2.812.032-3.911A8.816,8.816,0,0,1,12.249,63.9a3.765,3.765,0,0,1,6.335-.1,8.02,8.02,0,0,1,1.325,4.719v3.911c0,1.325-.356,1.842-.711,2.133a3.275,3.275,0,0,1-.97.452c-.291.162-.323.42-.485.776a.977.977,0,0,0,1.228.9,8.985,8.985,0,0,0,1.357-.711,4.518,4.518,0,0,0,1.422-3.555V68.486a9.85,9.85,0,0,0-1.681-5.753,5.914,5.914,0,0,0-3.749-2.359c.743-4.1,1.875-8.08,4.816-10.892a5.43,5.43,0,0,1,1.228-.873,17.581,17.581,0,0,0,1.842-.614c.776,10.116,6.755,18.713,10.956,26.244.646.743,1.067.517,1.681.032C42.4,63.8,46.961,58.3,47.963,47.93ZM45.991,49c-.614,8.435-5.753,15.707-9.954,23.044-4.2-7.272-9.276-14.479-9.954-22.818,1.939,4.622,5.85,7.143,9.858,7.143C40.044,56.366,43.987,53.78,45.991,49Zm8.6,13.122a1.826,1.826,0,1,1-1.842,1.81A1.814,1.814,0,0,1,54.588,62.119Zm-.259,7.3a.93.93,0,0,0,.259,1.842H63.7a.983.983,0,0,0,.937-.937.954.954,0,0,0-.937-.9Z" transform="translate(0 0)" fill="#d1a272" stroke="#d1a272" stroke-width="0.5"/></g></g></g></svg>