<svg xmlns="http://www.w3.org/2000/svg" width="87.921" height="78.485" viewBox="0 0 87.921 78.485"><g transform="translate(-15.06 -18.82)"><path d="M96.326,18.82H21.716a6.631,6.631,0,0,0-6.656,6.656v54.1a6.656,6.656,0,0,0,6.656,6.656h25.3v8.43h-9.1a1.321,1.321,0,0,0,0,2.642h42.2a1.321,1.321,0,1,0,0-2.642h-9.1v-8.43h25.3a6.668,6.668,0,0,0,6.656-6.656V71.311a1.34,1.34,0,0,0-2.68,0v4.215H61.449v-18a9.2,9.2,0,0,0-9.185-9.185H32.272A9.222,9.222,0,0,0,23.1,57.522v18H17.7V25.476a4.039,4.039,0,0,1,4.014-4.014h74.61a4,4,0,0,1,3.976,4.014v.239a1.346,1.346,0,0,0,1.334,1.334,1.321,1.321,0,0,0,1.346-1.334v-.239a6.656,6.656,0,0,0-6.656-6.656ZM68.344,94.638H49.7v-8.43H68.344ZM25.78,57.522a6.5,6.5,0,0,1,6.492-6.5h8.807V68.946a1.371,1.371,0,0,0,1.334,1.346,1.334,1.334,0,0,0,1.346-1.346V51.017h8.556a6.517,6.517,0,0,1,6.543,6.5v18H53.6V58.893a1.321,1.321,0,1,0-2.642,0V75.526H33.631V58.893a1.346,1.346,0,1,0-2.692,0V75.526H25.78ZM24.446,78.181H100.3v1.346a4,4,0,0,1-3.976,4.014H21.716A4.039,4.039,0,0,1,17.7,79.527V78.181Z" fill="#d1a272"/><path d="M30.07,34.683a8.216,8.216,0,1,0,8.191-8.2A8.216,8.216,0,0,0,30.07,34.683Zm13.752,0a5.536,5.536,0,1,1-5.561-5.523A5.536,5.536,0,0,1,43.822,34.683Z" transform="translate(3.875 1.978)" fill="#d1a272"/><path d="M89.8,28.56H62.255a4.19,4.19,0,0,0-4.227,4.177V34.9H51.17a1.346,1.346,0,0,0-1.183.717,1.371,1.371,0,0,0,0,1.371l7.763,11.663a1.673,1.673,0,0,1,.239.868V59.31a4.227,4.227,0,0,0,4.227,4.215H89.8a4.215,4.215,0,0,0,4.215-4.215V32.737A4.177,4.177,0,0,0,89.8,28.56Zm1.535,30.75A1.535,1.535,0,0,1,89.8,60.845H62.255a1.548,1.548,0,0,1-1.548-1.535V49.521a4.139,4.139,0,0,0-.7-2.315l-6.291-9.625h5.725a1.321,1.321,0,0,0,1.334-1.334v-3.51A1.51,1.51,0,0,1,62.318,31.2H89.8a1.51,1.51,0,0,1,1.535,1.535Z" transform="translate(8.97 2.515)" fill="#d1a272"/><path d="M81.344,35H64.031a1.321,1.321,0,0,0,0,2.642H81.344a1.321,1.321,0,1,0,0-2.642Z" transform="translate(12.302 4.177)" fill="#d1a272"/><path d="M81.344,41.37H64.031a1.321,1.321,0,0,0,0,2.642H81.344a1.321,1.321,0,1,0,0-2.642Z" transform="translate(12.302 5.822)" fill="#d1a272"/><path d="M74.675,47.73H64.031a1.321,1.321,0,0,0,0,2.642H74.675a1.321,1.321,0,1,0,0-2.642Z" transform="translate(12.302 7.464)" fill="#d1a272"/></g></svg>