<svg xmlns="http://www.w3.org/2000/svg" width="65.712" height="65.701" viewBox="0 0 65.712 65.701"><g transform="translate(157 -27)"><g transform="translate(-157 27)"><ellipse cx="4.818" cy="5.037" rx="4.818" ry="5.037" transform="translate(12.337 7.373)" fill="#d1a272"/><path d="M27.54,29.1,25.058,31l-2.482-1.9c-.73.146-6.57,1.606-7.081,6.132a1.264,1.264,0,0,0,.511,1.168c1.1.73,3.8,2.19,9.052,2.19h0c5.256,0,7.957-1.46,9.052-2.19a1.264,1.264,0,0,0,.511-1.168C34.037,30.706,28.2,29.246,27.54,29.1Z" transform="translate(-7.83 -11.507)" fill="#d1a272"/><ellipse cx="3.577" cy="3.796" rx="3.577" ry="3.796" transform="translate(47.232 27.886)" fill="#d1a272"/><path d="M73.872,53.8l-1.825,1.46L70.222,53.8c-.511.146-4.891,1.241-5.329,4.6a.837.837,0,0,0,.365.876c.8.584,2.847,1.606,6.789,1.606h0c3.942,0,5.986-1.1,6.789-1.606A.837.837,0,0,0,79.2,58.4C78.763,54.968,74.383,53.873,73.872,53.8Z" transform="translate(-21.166 -18.176)" fill="#d1a272"/><ellipse cx="3.577" cy="3.796" rx="3.577" ry="3.796" transform="translate(17.155 44.239)" fill="#d1a272"/><path d="M32.672,76.1l-1.825,1.46L29.022,76.1c-.511.146-4.891,1.241-5.329,4.6a.837.837,0,0,0,.365.876c.8.584,2.847,1.606,6.789,1.606h0c3.942,0,5.986-1.1,6.789-1.606A.837.837,0,0,0,38,80.7C37.563,77.341,33.183,76.246,32.672,76.1Z" transform="translate(-10.042 -24.196)" fill="#d1a272"/><path d="M70.555,61.284a4.677,4.677,0,0,0-5.475-3.358l-2.409-6.059A13.126,13.126,0,1,0,44.785,33.543l-7.008-3.8a17.256,17.256,0,0,0,1.752-7.519,16.316,16.316,0,0,0-.876-5.329l7.373-1.971a4.828,4.828,0,1,0-.657-1.971L37.85,15A17.222,17.222,0,1,0,22.228,39.456h.438l.584,5.256a13.122,13.122,0,1,0,15.7,12.848A12.87,12.87,0,0,0,37.7,52.013L44.858,48a13.015,13.015,0,0,0,15.914,4.818L63.109,58.8a4.7,4.7,0,1,0,7.446,2.482ZM7.482,22.228A14.746,14.746,0,1,1,22.228,36.974,14.752,14.752,0,0,1,7.482,22.228ZM25.805,68.219A10.658,10.658,0,1,1,36.463,57.561,10.671,10.671,0,0,1,25.805,68.219ZM36.682,50.261a13.092,13.092,0,0,0-10.877-5.84h-.511l-.584-5.11a17.479,17.479,0,0,0,12.045-7.738l7.081,3.8a12.883,12.883,0,0,0,.073,10.877ZM45.15,40.7A10.658,10.658,0,1,1,55.809,51.356,10.671,10.671,0,0,1,45.15,40.7Z" transform="translate(-5 -5)" fill="#d1a272"/></g></g></svg>