<svg xmlns="http://www.w3.org/2000/svg" width="120" height="121" viewBox="0 0 120 121">
  <g id="Group_37461" data-name="Group 37461" transform="translate(3389 -7279)">
    <g id="Ellipse_710" data-name="Ellipse 710" transform="translate(-3389 7279)" fill="none" stroke="#d1a272" stroke-width="2">
      <ellipse cx="60" cy="60.5" rx="60" ry="60.5" stroke="none"/>
      <ellipse cx="60" cy="60.5" rx="59" ry="59.5" fill="none"/>
    </g>
    <g id="Group_37460" data-name="Group 37460" transform="translate(1083.799 528)">
      <path id="Path_9439" data-name="Path 9439" d="M491.813,225.755v3.507a.7.7,0,1,0,1.4,0v-3.689a.736.736,0,0,0-.086-.344l-1.5-2.685a.7.7,0,1,0-1.223.688Z" transform="translate(-4886.898 6582.748)" fill="#d1a272" stroke="#d1a272" stroke-width="0.5"/>
      <path id="Path_9440" data-name="Path 9440" d="M263.213,181.361a.6.6,0,0,0,.258-.057.535.535,0,0,0,.22-.153.682.682,0,0,0,.22-.5.668.668,0,0,0-.22-.5.729.729,0,0,0-.22-.162.694.694,0,0,0-.755.162.685.685,0,0,0-.2.5.746.746,0,0,0,.2.5A.71.71,0,0,0,263.213,181.361Z" transform="translate(-4684.76 6620.232)" fill="#d1a272" stroke="#d1a272" stroke-width="0.5"/>
      <path id="Path_9441" data-name="Path 9441" d="M147.022,495.26H136.787a.7.7,0,0,0,0,1.4h10.244a.7.7,0,1,0-.009-1.4Z" transform="translate(-4572.573 6340.43)" fill="#d1a272" stroke="#d1a272" stroke-width="0.5"/>
      <path id="Path_9442" data-name="Path 9442" d="M182,216.489a2.838,2.838,0,1,0,2.838-2.838A2.839,2.839,0,0,0,182,216.489Zm4.281,0a1.443,1.443,0,1,1-1.443-1.443A1.448,1.448,0,0,1,186.281,216.489Z" transform="translate(-4613.313 6590.323)" fill="#d1a272" stroke="#d1a272" stroke-width="0.5"/>
      <path id="Path_9443" data-name="Path 9443" d="M449.975,413.519a.7.7,0,0,0-.965.21,9.915,9.915,0,0,0-1.319,3.144.692.692,0,0,0,.535.831.825.825,0,0,0,.153.019.686.686,0,0,0,.678-.545,8.248,8.248,0,0,1,1.128-2.695A.7.7,0,0,0,449.975,413.519Z" transform="translate(-4849.065 6413.064)" fill="#d1a272" stroke="#d1a272" stroke-width="0.5"/>
      <path id="Path_9444" data-name="Path 9444" d="M133.06,105.677V90.483a.735.735,0,0,0-.086-.344l-5.313-9.509h.143a.7.7,0,0,0,.7-.7v-6.25a2.582,2.582,0,0,0-2.58-2.58h-8.83a2.582,2.582,0,0,0-2.58,2.58v6.25a.7.7,0,0,0,.7.7h.143L110.6,89.164l-1.949-5.332a.7.7,0,0,0-.659-.459h-4.128a.7.7,0,1,0,0,1.4h3.1L103.1,95.2H81.685l3.421-10.436H98.848a.7.7,0,1,0,0-1.4H84.591a.7.7,0,0,0-.669.478L80.051,95.7c-.01.029,0,.048-.01.077a.66.66,0,0,0-.029.134v28.4a.7.7,0,0,0,.7.7h44.9a4.341,4.341,0,0,0,2.064-.535,9.7,9.7,0,0,0,3.344.6,9.808,9.808,0,0,0,2.045-19.4Zm-17.153-32a1.191,1.191,0,0,1,1.185-1.185h8.83a1.185,1.185,0,0,1,1.185,1.185v5.552h-11.2Zm-7.922,12.442,1.739,4.749a.7.7,0,0,0,.2.545l1.4,3.822h-6.67Zm-26.566,37.5v-27h21.453v27Zm22.925-27h7.282v27h-7.282Zm26.671,27.063a8.426,8.426,0,0,1-8.419-8.419.7.7,0,0,0-1.4,0,9.8,9.8,0,0,0,4.654,8.333,2.14,2.14,0,0,1-.249.019H113.021V95.92c0-.01-.01-.029-.01-.038a.734.734,0,0,0-.029-.2L111.234,90.9l5.724-10.273h9.107l5.6,10.034v14.831c-.21-.01-.43-.029-.64-.029a9.765,9.765,0,0,0-5.734,1.844.7.7,0,1,0,.813,1.137,8.409,8.409,0,1,1,4.912,15.233Z" transform="translate(-4522.813 6716.816)" fill="#d1a272" stroke="#d1a272" stroke-width="0.5"/>
      <path id="Path_9445" data-name="Path 9445" d="M527.352,404.64a.7.7,0,0,0,0,1.4,5.208,5.208,0,0,1,5.208,5.208.7.7,0,0,0,1.4,0,6.606,6.606,0,0,0-6.6-6.6Z" transform="translate(-4919.15 6420.844)" fill="#d1a272" stroke="#d1a272" stroke-width="0.5"/>
      <path id="Path_9446" data-name="Path 9446" d="M496.7,468.28a2.542,2.542,0,1,0,2.542,2.542A2.541,2.541,0,0,0,496.7,468.28Zm0,3.689a1.147,1.147,0,1,1,1.147-1.147A1.15,1.15,0,0,1,496.7,471.969Z" transform="translate(-4890.315 6364.372)" fill="#d1a272" stroke="#d1a272" stroke-width="0.5"/>
      <path id="Path_9447" data-name="Path 9447" d="M94.653,13.62a1.973,1.973,0,1,0-2-1.969A1.992,1.992,0,0,0,94.653,13.62Zm0-3.02a1.047,1.047,0,1,1-1.061,1.051A1.047,1.047,0,0,1,94.653,10.6Z" transform="translate(-4534.032 6771.327)" fill="#d1a272" stroke="#d1a272" stroke-width="0.5"/>
      <path id="Path_9448" data-name="Path 9448" d="M588.552,33.011h1.214a.468.468,0,0,0,0-.936h-1.214a.469.469,0,0,0-.468.468A.463.463,0,0,0,588.552,33.011Z" transform="translate(-4973.661 6751.448)" fill="#d1a272" stroke="#d1a272" stroke-width="0.5"/>
      <path id="Path_9449" data-name="Path 9449" d="M558.6,33.011h1.214a.468.468,0,0,0,0-.936H558.6a.469.469,0,0,0-.468.468A.463.463,0,0,0,558.6,33.011Z" transform="translate(-4947.084 6751.448)" fill="#d1a272" stroke="#d1a272" stroke-width="0.5"/>
      <path id="Path_9450" data-name="Path 9450" d="M578.972,43.9a.469.469,0,0,0,.468-.468V42.215a.468.468,0,0,0-.936,0v1.214A.468.468,0,0,0,578.972,43.9Z" transform="translate(-4965.16 6742.866)" fill="#d1a272" stroke="#d1a272" stroke-width="0.5"/>
      <path id="Path_9451" data-name="Path 9451" d="M578.972,13.871a.469.469,0,0,0,.468-.468V12.18a.468.468,0,0,0-.936,0v1.214A.471.471,0,0,0,578.972,13.871Z" transform="translate(-4965.16 6769.518)" fill="#d1a272" stroke="#d1a272" stroke-width="0.5"/>
      <path id="Path_9452" data-name="Path 9452" d="M591.272,302.32a.468.468,0,0,0,0,.936h1.214a.468.468,0,0,0,0-.936Z" transform="translate(-4976.075 6511.64)" fill="#d1a272" stroke="#d1a272" stroke-width="0.5"/>
      <path id="Path_9453" data-name="Path 9453" d="M562.449,302.32h-1.214a.468.468,0,1,0,0,.936h1.214a.468.468,0,1,0,0-.936Z" transform="translate(-4949.42 6511.64)" fill="#d1a272" stroke="#d1a272" stroke-width="0.5"/>
      <path id="Path_9454" data-name="Path 9454" d="M581.21,313.589a.468.468,0,1,0,.936,0v-1.214a.468.468,0,1,0-.936,0Z" transform="translate(-4967.562 6503.133)" fill="#d1a272" stroke="#d1a272" stroke-width="0.5"/>
      <path id="Path_9455" data-name="Path 9455" d="M581.6,284.021a.469.469,0,0,0,.468-.468v-1.214a.468.468,0,0,0-.936,0v1.214A.463.463,0,0,0,581.6,284.021Z" transform="translate(-4967.493 6529.786)" fill="#d1a272" stroke="#d1a272" stroke-width="0.5"/>
      <path id="Path_9456" data-name="Path 9456" d="M530.89,149.182a1.921,1.921,0,1,0-1.949-1.921A1.931,1.931,0,0,0,530.89,149.182Zm0-2.915a.994.994,0,1,1-1.022.994A1.009,1.009,0,0,1,530.89,146.267Z" transform="translate(-4921.179 6650.94)" fill="#d1a272" stroke="#d1a272" stroke-width="0.5"/>
      <path id="Path_9457" data-name="Path 9457" d="M315.04,23.1a1.921,1.921,0,1,0-1.949-1.921A1.931,1.931,0,0,0,315.04,23.1Zm0-2.915a.994.994,0,1,1-1.022.994A1.009,1.009,0,0,1,315.04,20.188Z" transform="translate(-4729.64 6762.819)" fill="#d1a272" stroke="#d1a272" stroke-width="0.5"/>
      <path id="Path_9458" data-name="Path 9458" d="M219.122,110.144h1.252a.468.468,0,0,0,0-.936h-1.252a.468.468,0,0,0,0,.936Z" transform="translate(-4645.838 6683.002)" fill="#d1a272" stroke="#d1a272" stroke-width="0.5"/>
      <path id="Path_9459" data-name="Path 9459" d="M188.152,110.144H189.4a.468.468,0,0,0,0-.936h-1.252a.468.468,0,1,0,0,.936Z" transform="translate(-4618.356 6683.002)" fill="#d1a272" stroke="#d1a272" stroke-width="0.5"/>
      <path id="Path_9460" data-name="Path 9460" d="M209.2,119.13a.469.469,0,0,0-.468.468v1.252a.468.468,0,0,0,.936,0V119.6A.469.469,0,0,0,209.2,119.13Z" transform="translate(-4637.036 6674.198)" fill="#d1a272" stroke="#d1a272" stroke-width="0.5"/>
      <path id="Path_9461" data-name="Path 9461" d="M209.2,90.352a.469.469,0,0,0,.468-.468V88.633a.468.468,0,1,0-.936,0v1.252A.468.468,0,0,0,209.2,90.352Z" transform="translate(-4637.036 6701.676)" fill="#d1a272" stroke="#d1a272" stroke-width="0.5"/>
    </g>
  </g>
</svg>
