<svg xmlns="http://www.w3.org/2000/svg" width="72.052" height="72.052" viewBox="0 0 72.052 72.052"><g transform="translate(3557.016 -7440.468)"><path d="M142.541,178.567a36.286,36.286,0,0,1-7.259-.732,35.834,35.834,0,0,1-12.884-5.421,36.128,36.128,0,0,1-13.051-15.849,35.854,35.854,0,0,1-2.1-6.764,36.367,36.367,0,0,1,0-14.519,35.835,35.835,0,0,1,5.421-12.884,36.128,36.128,0,0,1,15.849-13.051,35.853,35.853,0,0,1,6.764-2.1,36.367,36.367,0,0,1,14.519,0,35.834,35.834,0,0,1,12.884,5.421,36.128,36.128,0,0,1,13.051,15.849,35.854,35.854,0,0,1,2.1,6.764,36.287,36.287,0,0,1,.732,7.259h0a36.286,36.286,0,0,1-.732,7.259,35.834,35.834,0,0,1-5.421,12.884,36.128,36.128,0,0,1-15.849,13.051,35.851,35.851,0,0,1-6.764,2.1A36.286,36.286,0,0,1,142.541,178.567Zm0-69.847a33.821,33.821,0,1,0,33.821,33.821A33.86,33.86,0,0,0,142.541,108.72Z" transform="translate(-3663.531 7333.953)" fill="#d1a272"/><path d="M219,178.567a8.346,8.346,0,0,1-3.55-.813,11.815,11.815,0,0,1-3.171-2.241,24.452,24.452,0,0,1-5.107-7.835,52.015,52.015,0,0,1-3.353-11.342,78.562,78.562,0,0,1,0-27.589,52.016,52.016,0,0,1,3.353-11.342,24.452,24.452,0,0,1,5.107-7.835,11.815,11.815,0,0,1,3.171-2.241,8.155,8.155,0,0,1,7.1,0,11.814,11.814,0,0,1,3.171,2.241,24.452,24.452,0,0,1,5.107,7.835,52.016,52.016,0,0,1,3.353,11.342,75.974,75.974,0,0,1,1.221,13.795h0a75.974,75.974,0,0,1-1.221,13.795,52.016,52.016,0,0,1-3.353,11.342,24.452,24.452,0,0,1-5.107,7.835,11.814,11.814,0,0,1-3.171,2.241A8.346,8.346,0,0,1,219,178.567Zm0-69.847a7.524,7.524,0,0,0-5.189,2.435,22.3,22.3,0,0,0-4.619,7.134c-2.83,6.46-4.388,15.073-4.388,24.252s1.558,17.793,4.388,24.252a22.305,22.305,0,0,0,4.619,7.134,6.747,6.747,0,0,0,10.379,0,22.306,22.306,0,0,0,4.619-7.134c2.83-6.46,4.388-15.073,4.388-24.252s-1.558-17.793-4.388-24.252a22.305,22.305,0,0,0-4.619-7.134A7.524,7.524,0,0,0,219,108.72Z" transform="translate(-3739.991 7333.953)" fill="#d1a272"/><path d="M278.6,178.846a1.1,1.1,0,0,1-1.1-1.1V108.088a1.1,1.1,0,0,1,2.2,0v69.655A1.1,1.1,0,0,1,278.6,178.846Z" transform="translate(-3799.593 7333.578)" fill="#d1a272"/><path d="M148.123,369.12a1.1,1.1,0,0,1-.507-2.082,39.747,39.747,0,0,1,5.518-2.308,55.95,55.95,0,0,1,6.486-1.741,77.906,77.906,0,0,1,30.306,0,55.968,55.968,0,0,1,6.486,1.74,39.744,39.744,0,0,1,5.518,2.307,1.1,1.1,0,0,1-1.012,1.959c-6.5-3.361-16.034-5.288-26.145-5.288s-19.639,1.928-26.144,5.29A1.1,1.1,0,0,1,148.123,369.12Z" transform="translate(-3695.763 7131.048)" fill="#d1a272"/><path d="M177.739,279.7H108.082a1.1,1.1,0,1,1,0-2.2h69.656a1.1,1.1,0,0,1,0,2.2Z" transform="translate(-3663.901 7197.892)" fill="#d1a272"/><path d="M177.473,170.376a75.247,75.247,0,0,1-14.658-1.387,57.4,57.4,0,0,1-6.33-1.626,41.874,41.874,0,0,1-5.45-2.16A1.1,1.1,0,0,1,152,163.22c6.477,3.147,15.763,4.952,25.476,4.952s19-1.8,25.475-4.952a1.1,1.1,0,1,1,.964,1.983,41.769,41.769,0,0,1-5.448,2.16,57.37,57.37,0,0,1-6.331,1.626A75.255,75.255,0,0,1,177.473,170.376Z" transform="translate(-3698.463 7288.918)" fill="#d1a272"/></g></svg>