<svg xmlns="http://www.w3.org/2000/svg" width="82.515" height="42.532" viewBox="0 0 82.515 42.532"><g transform="translate(-8.735 -28.719)"><path d="M91,40a11,11,0,1,0-17.3,9H26.3a11,11,0,1,0-12.6,0H10a1,1,0,0,0-1,1v5a1,1,0,0,0,1,1H48.13l-9,13.45A1.007,1.007,0,0,0,40,71H60a.988.988,0,0,0,.83-1.53L51.87,56H90a1,1,0,0,0,1-1V50a1,1,0,0,0-1-1H86.3A11,11,0,0,0,91,40ZM11,40a9,9,0,1,1,9,9A9,9,0,0,1,11,40ZM58.13,69H41.87L50,56.8ZM89,51v3H11V51Zm-9-2a9,9,0,1,1,9-9A9,9,0,0,1,80,49Z" fill="#d1a272" stroke="#d1a272" stroke-width="0.5"/></g></svg>