<svg xmlns="http://www.w3.org/2000/svg" width="65.033" height="61.105" viewBox="0 0 65.033 61.105"><g transform="translate(0.5 -1.41)"><path d="M42.407,49.974a10.417,10.417,0,1,1,7.361-3,10.417,10.417,0,0,1-7.361,3Zm0-19.845a9.438,9.438,0,0,0-6.672,16.1h0a9.428,9.428,0,1,0,6.672-16.1Z" transform="translate(-0.04 -0.034)" fill="#d1a272" stroke="#d1a272" stroke-width="1"/><path d="M42.4,53.545A13.983,13.983,0,1,1,52.28,49.46,13.982,13.982,0,0,1,42.4,53.545Zm0-26.966a12.984,12.984,0,0,0-9.189,22.162h0A12.984,12.984,0,1,0,42.4,26.579Z" transform="translate(-0.035 -0.03)" fill="#d1a272" stroke="#d1a272" stroke-width="1"/><path d="M60.617,61.163h-.13a3.416,3.416,0,0,1-2.437-1.179l-7.9-9.278a.479.479,0,0,1,.06-.689.489.489,0,0,1,.689,0l7.9,9.278a2.4,2.4,0,0,0,1.728.839,2.347,2.347,0,0,0,1.778-.7,2.377,2.377,0,0,0,.679-1.738,2.347,2.347,0,0,0-.819-1.708L52.886,48.1a.489.489,0,0,1,0-.7.479.479,0,0,1,.689,0l9.278,7.89a3.366,3.366,0,0,1-2.187,5.933Z" transform="translate(-0.062 -0.057)" fill="#d1a272" stroke="#d1a272" stroke-width="1"/><path d="M42.415,41.99a4.145,4.145,0,1,1,4.135-4.135,4.145,4.145,0,0,1-4.135,4.135Zm0-7.291a1.309,1.309,0,1,0,0-.02Z" transform="translate(-0.048 -0.04)" fill="#d1a272" stroke="#d1a272" stroke-width="1"/><path d="M49.7,46.823a.5.5,0,0,1-.449-.3,7.421,7.421,0,0,0-13.683,0,.494.494,0,0,1-.909-.39,8.41,8.41,0,0,1,15.491,0,.5.5,0,0,1-.26.649.579.579,0,0,1-.19.04Z" transform="translate(-0.043 -0.049)" fill="#d1a272" stroke="#d1a272" stroke-width="1"/><path d="M47.251,62.015H1.378A1.388,1.388,0,0,1,0,60.627V3.3A1.388,1.388,0,0,1,1.378,1.91H40.09a.509.509,0,0,1,.35.15l8.05,7.99a.529.529,0,0,1,.15.35V27.378a.5.5,0,1,1-1,0V10.659L39.89,2.9H1.378a.4.4,0,0,0-.4.4V60.627a.4.4,0,0,0,.4.4H47.251a.4.4,0,0,0,.4-.4V51.738a.5.5,0,1,1,1,0v8.889a1.4,1.4,0,0,1-1.4,1.388Z" transform="translate(0)" fill="#d1a272" stroke="#d1a272" stroke-width="1"/><path d="M48.189,10.989h-8.05a.489.489,0,0,1-.489-.5V2.5a.489.489,0,0,1,.489-.5.5.5,0,0,1,.5.5V9.99h7.551a.5.5,0,0,1,0,1Z" transform="translate(-0.049 0)" fill="#d1a272" stroke="#d1a272" stroke-width="1"/><path d="M42.394,17.289H6.249a.5.5,0,0,1,0-1H42.394a.5.5,0,1,1,0,1Z" transform="translate(-0.007 -0.018)" fill="#d1a272" stroke="#d1a272" stroke-width="1"/><path d="M35.073,24.549H6.249a.5.5,0,1,1,0-1H35.073a.5.5,0,0,1,0,1Z" transform="translate(-0.007 -0.027)" fill="#d1a272" stroke="#d1a272" stroke-width="1"/><path d="M27.543,31.809H6.249a.5.5,0,0,1,0-1H27.543a.5.5,0,0,1,0,1Z" transform="translate(-0.007 -0.036)" fill="#d1a272" stroke="#d1a272" stroke-width="1"/><path d="M25.515,39.069H6.249a.5.5,0,1,1,0-1H25.515a.5.5,0,1,1,0,1Z" transform="translate(-0.007 -0.045)" fill="#d1a272" stroke="#d1a272" stroke-width="1"/><path d="M24.327,46.329H6.249a.5.5,0,1,1,0-1H24.327a.5.5,0,1,1,0,1Z" transform="translate(-0.007 -0.054)" fill="#d1a272" stroke="#d1a272" stroke-width="1"/><path d="M27.063,53.589H6.249a.5.5,0,1,1,0-1H27.063a.5.5,0,1,1,0,1Z" transform="translate(-0.007 -0.063)" fill="#d1a272" stroke="#d1a272" stroke-width="1"/><path d="M34.434,10H6.249a.5.5,0,1,1,0-1H34.434a.5.5,0,1,1,0,1Z" transform="translate(-0.007 -0.009)" fill="#d1a272" stroke="#d1a272" stroke-width="1"/></g></svg>