<svg xmlns="http://www.w3.org/2000/svg" width="52.052" height="63.977" viewBox="0 0 52.052 63.977"><g transform="translate(-8 -2)"><path d="M31,28.488V42a1,1,0,0,0,2,0V28.488c.967-.868,3.418-3.368,3.418-6.443,0-3.747-3.646-6.648-3.8-6.769a1,1,0,0,0-1.233,0c-.155.122-3.8,3.022-3.8,6.77C27.581,25.12,30.032,27.621,31,28.488ZM32,17.4c.994.978,2.414,2.781,2.414,4.641A5.98,5.98,0,0,1,33,25.551V21.618a1,1,0,1,0-2,0v3.933a5.98,5.98,0,0,1-1.418-3.506c0-1.977,1.536-3.77,2.423-4.641Z" transform="translate(2.026 1.62)" fill="#d1a272"/><path d="M35.5,32.632a1,1,0,0,0,.872.872,10.514,10.514,0,0,0,1.17.058c1.59,0,4.438-.29,6.3-2.157,2.65-2.649,2.123-7.279,2.1-7.475a1,1,0,0,0-.872-.872c-.2-.024-4.825-.552-7.475,2.1S35.473,32.437,35.5,32.632Zm3.513-6.061c1.4-1.4,3.757-1.559,4.989-1.569.011,1.245-.172,3.593-1.569,4.989a5.967,5.967,0,0,1-3.477,1.471l2.777-2.776a1,1,0,1,0-1.414-1.414l-2.781,2.781A5.983,5.983,0,0,1,39.009,26.571Z" transform="translate(2.97 1.689)" fill="#d1a272"/><path d="M20.156,31.406c1.866,1.867,4.715,2.157,6.3,2.157a10.515,10.515,0,0,0,1.17-.058,1,1,0,0,0,.872-.872c.024-.2.551-4.825-2.1-7.475s-7.279-2.122-7.475-2.1a1,1,0,0,0-.872.872C18.034,24.126,17.506,28.756,20.156,31.406Zm4.834-4.834a5.983,5.983,0,0,1,1.476,3.482l-2.781-2.781a1,1,0,1,0-1.414,1.414l2.776,2.776a5.96,5.96,0,0,1-3.477-1.471C20.174,28.6,19.99,26.247,20,25,21.25,25.011,23.595,25.175,24.991,26.571Z" transform="translate(1.082 1.689)" fill="#d1a272"/><path d="M25.126,44.642v2.009H21.788a1.074,1.074,0,1,0,0,2.147h3.338v11.81a1.094,1.094,0,0,0,1.113,1.074h3.338V64.9a1.094,1.094,0,0,0,1.113,1.074h6.675A1.094,1.094,0,0,0,38.476,64.9V61.682h3.338a1.094,1.094,0,0,0,1.113-1.074V57.387h3.338a1.074,1.074,0,1,0,0-2.147H42.927V53.093h3.338a1.074,1.074,0,1,0,0-2.147H42.927V48.8h3.338a1.074,1.074,0,1,0,0-2.147H42.927V44.642a19.118,19.118,0,0,0,10.6-21.723A19.892,19.892,0,0,0,34.026,8a19.892,19.892,0,0,0-19.5,14.915,19.118,19.118,0,0,0,10.6,21.723ZM36.251,63.829H31.8V61.682h4.45ZM40.7,50.946H34.026a1.074,1.074,0,1,0,0,2.147H40.7V55.24H34.026a1.074,1.074,0,1,0,0,2.147H40.7v2.147H27.351V48.8H40.7Zm-6.676-40.8a17.669,17.669,0,0,1,17.4,13.56A17.033,17.033,0,0,1,41.357,42.984a1.072,1.072,0,0,0-.654.976v2.69H27.35V43.96a1.072,1.072,0,0,0-.654-.976A17.032,17.032,0,0,1,16.625,23.71a17.67,17.67,0,0,1,17.4-13.563Z" transform="translate(0 0)" fill="#d1a272"/><path d="M33,5V3a1,1,0,0,0-2,0V5a1,1,0,0,0,2,0Z" transform="translate(2.026)" fill="#d1a272"/><path d="M25.511,7.028a1,1,0,0,0,.951-1.31l-.618-1.9a1,1,0,1,0-1.9.618l.619,1.9a1,1,0,0,0,.951.691Z" transform="translate(1.419)" fill="#d1a272"/><path d="M19.658,10.011a1,1,0,0,0,.808-1.588L19.29,6.8A1,1,0,1,0,17.672,7.98L18.848,9.6A1,1,0,0,0,19.658,10.011Z" transform="translate(0.857)" fill="#d1a272"/><path d="M13.981,11.672A1,1,0,1,0,12.8,13.29l1.618,1.176A1,1,0,1,0,15.6,12.848Z" transform="translate(0 0.663)" fill="#d1a272"/><path d="M10.435,17.941a1,1,0,1,0-.618,1.9l1.9.618a1,1,0,0,0,.618-1.9Z" transform="translate(0 1.101)" fill="#d1a272"/><path d="M8,26a1,1,0,0,0,1,1h2a1,1,0,0,0,0-2H9A1,1,0,0,0,8,26Z" transform="translate(0 1.577)" fill="#d1a272"/><path d="M11.719,31.538l-1.9.618a1,1,0,1,0,.618,1.9l1.9-.618a1,1,0,1,0-.618-1.9Z" transform="translate(0 2.044)" fill="#d1a272"/><path d="M15.82,37.755a1,1,0,0,0-1.4-.221L12.8,38.71a1,1,0,0,0,1.176,1.618L15.6,39.152a1,1,0,0,0,.221-1.4Z" transform="translate(0 2.473)" fill="#d1a272"/><path d="M48.18,37.755a1,1,0,0,0,.221,1.4l1.619,1.176A1,1,0,1,0,51.2,38.71l-1.618-1.176A1,1,0,0,0,48.18,37.755Z" transform="translate(4.052 2.473)" fill="#d1a272"/><path d="M54.184,32.156l-1.9-.618a1,1,0,1,0-.618,1.9l1.9.618a1,1,0,0,0,.618-1.9Z" transform="translate(4.052 2.044)" fill="#d1a272"/><path d="M55,25H53a1,1,0,0,0,0,2h2a1,1,0,0,0,0-2Z" transform="translate(4.052 1.577)" fill="#d1a272"/><path d="M53.565,17.941l-1.9.618a1,1,0,0,0,.618,1.9l1.9-.618a1,1,0,0,0-.618-1.9Z" transform="translate(4.052 1.101)" fill="#d1a272"/><path d="M50.02,11.672,48.4,12.848a1,1,0,1,0,1.176,1.618L51.2,13.29a1,1,0,1,0-1.175-1.618Z" transform="translate(4.052 0.663)" fill="#d1a272"/><path d="M45.152,9.6l1.176-1.618A1,1,0,0,0,44.71,6.8L43.534,8.423A1,1,0,0,0,45.152,9.6Z" transform="translate(3.195)" fill="#d1a272"/><path d="M38.489,7.028a1,1,0,0,0,.951-.691l.618-1.9a1,1,0,1,0-1.9-.618l-.618,1.9a1,1,0,0,0,.951,1.31Z" transform="translate(2.633)" fill="#d1a272"/></g></svg>