<svg xmlns="http://www.w3.org/2000/svg" width="60.055" height="60.054" viewBox="0 0 60.055 60.054"><g transform="translate(3453.021 -7627.683)"><path d="M134.619,41.5a12.513,12.513,0,0,0-10.876-22.22,13.74,13.74,0,0,0-25.038,0A12.512,12.512,0,0,0,87.829,41.5,8.767,8.767,0,0,0,81.2,49.985V68.752H91.206v2.5h40.036v-2.5h10.009V49.985a8.766,8.766,0,0,0-6.632-8.486Zm-7.13-20.289a10,10,0,0,1,1.733,19.856,11.249,11.249,0,0,0-9.24-4.842h-.87a13.643,13.643,0,0,0,5.454-14.576,9.931,9.931,0,0,1,2.923-.438ZM111.225,13.7a11.26,11.26,0,1,1-11.26,11.26,11.273,11.273,0,0,1,11.26-11.26ZM84.951,31.218A10.021,10.021,0,0,1,94.96,21.209a9.916,9.916,0,0,1,2.923.438,13.641,13.641,0,0,0,5.454,14.576h-.87a11.25,11.25,0,0,0-9.239,4.842,9.956,9.956,0,0,1-8.276-9.846ZM83.7,66.25V49.985a6.263,6.263,0,0,1,6.256-6.256h1.908a11.18,11.18,0,0,0-.657,3.754V66.25Zm45.041,2.5H93.709V47.483a8.768,8.768,0,0,1,8.758-8.758h17.516a8.768,8.768,0,0,1,8.758,8.758Zm10.009-2.5h-7.507V47.483a11.191,11.191,0,0,0-.657-3.754h1.908a6.263,6.263,0,0,1,6.256,6.256Z" transform="translate(-3534.218 7616.483)" fill="#d1a272"/><path d="M316.4,282.5h2.5v22.52h2.5V282.5h2.5V280H316.4Z" transform="translate(-3743.146 7377.708)" fill="#d1a272"/></g></svg>