<svg xmlns="http://www.w3.org/2000/svg" width="20.069" height="15.809" viewBox="0 0 20.069 15.809"><g transform="translate(0 0)"><path d="M4031.034,657.243a3.195,3.195,0,1,0,2.737,3.162A2.969,2.969,0,0,0,4031.034,657.243Zm0,8.431c-2.518,0-4.561-2.361-4.561-5.27s2.043-5.27,4.561-5.27,4.562,2.361,4.562,5.27S4033.552,665.674,4031.034,665.674Zm0-13.174c-4.561,0-8.457,3.278-10.035,7.9,1.578,4.627,5.473,7.9,10.035,7.9s8.458-3.278,10.034-7.9C4039.492,655.778,4035.6,652.5,4031.034,652.5Z" transform="translate(-4021 -652.5)" fill="#d1a374"/></g></svg>